<mxfile host="app.diagrams.net" modified="2023-12-01T20:57:17.114Z" agent="Mozilla/5.0 (Windows NT 10.0; Win64; x64) AppleWebKit/537.36 (KHTML, like Gecko) Chrome/119.0.0.0 Safari/537.36" etag="xdKaiBn0RofW4u1kRRyy" version="22.1.5" type="device">
  <diagram id="vJi60URar5f1sg_l_6Mv" name="Страница — 2">
    <mxGraphModel dx="1514" dy="589" grid="1" gridSize="10" guides="1" tooltips="1" connect="1" arrows="1" fold="1" page="1" pageScale="1" pageWidth="827" pageHeight="1169" math="0" shadow="0">
      <root>
        <mxCell id="0" />
        <mxCell id="1" parent="0" />
        <mxCell id="jXORyKpwqcTnmHkpgUig-2" value="Диаграмма Activity для музыкального сервиса &quot;Не клон Spotify&quot; по выбору музыки." style="text;html=1;align=center;verticalAlign=middle;resizable=0;points=[];autosize=1;strokeColor=none;fillColor=none;" vertex="1" parent="1">
          <mxGeometry x="155" width="490" height="30" as="geometry" />
        </mxCell>
        <mxCell id="jXORyKpwqcTnmHkpgUig-4" value="Пользователь" style="text;html=1;align=center;verticalAlign=middle;resizable=0;points=[];autosize=1;strokeColor=none;fillColor=none;" vertex="1" parent="1">
          <mxGeometry x="102.5" y="50" width="100" height="30" as="geometry" />
        </mxCell>
        <mxCell id="jXORyKpwqcTnmHkpgUig-6" value="Система&amp;nbsp;" style="text;html=1;align=center;verticalAlign=middle;resizable=0;points=[];autosize=1;strokeColor=none;fillColor=none;" vertex="1" parent="1">
          <mxGeometry x="430" y="40" width="80" height="30" as="geometry" />
        </mxCell>
        <mxCell id="jXORyKpwqcTnmHkpgUig-9" value="" style="endArrow=none;dashed=1;html=1;dashPattern=1 3;strokeWidth=2;rounded=0;" edge="1" parent="1">
          <mxGeometry width="50" height="50" relative="1" as="geometry">
            <mxPoint x="280" y="921.5999755859375" as="sourcePoint" />
            <mxPoint x="280" y="40" as="targetPoint" />
          </mxGeometry>
        </mxCell>
        <mxCell id="jXORyKpwqcTnmHkpgUig-10" value="" style="endArrow=none;dashed=1;html=1;dashPattern=1 3;strokeWidth=2;rounded=0;" edge="1" parent="1">
          <mxGeometry width="50" height="50" relative="1" as="geometry">
            <mxPoint x="800" y="901.5999755859375" as="sourcePoint" />
            <mxPoint x="800" y="20" as="targetPoint" />
          </mxGeometry>
        </mxCell>
        <mxCell id="jXORyKpwqcTnmHkpgUig-22" style="edgeStyle=orthogonalEdgeStyle;rounded=0;orthogonalLoop=1;jettySize=auto;html=1;exitX=0.5;exitY=1;exitDx=0;exitDy=0;entryX=0.5;entryY=0;entryDx=0;entryDy=0;" edge="1" parent="1" source="jXORyKpwqcTnmHkpgUig-11" target="jXORyKpwqcTnmHkpgUig-43">
          <mxGeometry relative="1" as="geometry">
            <mxPoint x="92.5" y="130" as="targetPoint" />
          </mxGeometry>
        </mxCell>
        <mxCell id="jXORyKpwqcTnmHkpgUig-11" value="" style="ellipse;fillColor=strokeColor;html=1;" vertex="1" parent="1">
          <mxGeometry x="142.5" y="90" width="20" height="20" as="geometry" />
        </mxCell>
        <mxCell id="jXORyKpwqcTnmHkpgUig-12" value="&lt;font style=&quot;font-size: 9px;&quot;&gt;Начало&lt;/font&gt;" style="text;html=1;align=center;verticalAlign=middle;resizable=0;points=[];autosize=1;strokeColor=none;fillColor=none;" vertex="1" parent="1">
          <mxGeometry x="92.5" y="85" width="50" height="30" as="geometry" />
        </mxCell>
        <mxCell id="jXORyKpwqcTnmHkpgUig-16" style="edgeStyle=orthogonalEdgeStyle;rounded=0;orthogonalLoop=1;jettySize=auto;html=1;exitX=1;exitY=0.5;exitDx=0;exitDy=0;entryX=0;entryY=0.5;entryDx=0;entryDy=0;" edge="1" parent="1" source="jXORyKpwqcTnmHkpgUig-43">
          <mxGeometry relative="1" as="geometry">
            <mxPoint x="407.5" y="145" as="targetPoint" />
            <mxPoint x="132.5" y="145" as="sourcePoint" />
          </mxGeometry>
        </mxCell>
        <mxCell id="jXORyKpwqcTnmHkpgUig-29" style="edgeStyle=orthogonalEdgeStyle;rounded=0;orthogonalLoop=1;jettySize=auto;html=1;exitX=0.5;exitY=1;exitDx=0;exitDy=0;" edge="1" parent="1" target="jXORyKpwqcTnmHkpgUig-30">
          <mxGeometry relative="1" as="geometry">
            <mxPoint x="469.8965517241379" y="220" as="targetPoint" />
            <mxPoint x="470" y="175" as="sourcePoint" />
          </mxGeometry>
        </mxCell>
        <mxCell id="jXORyKpwqcTnmHkpgUig-32" value="&lt;font style=&quot;font-size: 8px;&quot;&gt;Слушаем рекомендации&lt;/font&gt;" style="edgeLabel;html=1;align=center;verticalAlign=middle;resizable=0;points=[];" vertex="1" connectable="0" parent="jXORyKpwqcTnmHkpgUig-29">
          <mxGeometry x="-0.3528" relative="1" as="geometry">
            <mxPoint as="offset" />
          </mxGeometry>
        </mxCell>
        <mxCell id="jXORyKpwqcTnmHkpgUig-38" style="edgeStyle=orthogonalEdgeStyle;rounded=0;orthogonalLoop=1;jettySize=auto;html=1;exitX=0;exitY=0.5;exitDx=0;exitDy=0;entryX=1;entryY=0.5;entryDx=0;entryDy=0;" edge="1" parent="1" source="jXORyKpwqcTnmHkpgUig-30" target="jXORyKpwqcTnmHkpgUig-41">
          <mxGeometry relative="1" as="geometry">
            <mxPoint x="400" y="225" as="targetPoint" />
          </mxGeometry>
        </mxCell>
        <mxCell id="jXORyKpwqcTnmHkpgUig-39" value="&lt;font style=&quot;font-size: 8px;&quot;&gt;Нет&lt;/font&gt;" style="edgeLabel;html=1;align=center;verticalAlign=middle;resizable=0;points=[];" vertex="1" connectable="0" parent="jXORyKpwqcTnmHkpgUig-38">
          <mxGeometry x="-0.0915" y="1" relative="1" as="geometry">
            <mxPoint x="1" y="-1" as="offset" />
          </mxGeometry>
        </mxCell>
        <mxCell id="jXORyKpwqcTnmHkpgUig-63" style="edgeStyle=orthogonalEdgeStyle;rounded=0;orthogonalLoop=1;jettySize=auto;html=1;entryX=1;entryY=0.5;entryDx=0;entryDy=0;" edge="1" parent="1" source="jXORyKpwqcTnmHkpgUig-30" target="jXORyKpwqcTnmHkpgUig-64">
          <mxGeometry relative="1" as="geometry">
            <mxPoint x="540" y="750" as="targetPoint" />
            <Array as="points">
              <mxPoint x="720" y="225" />
              <mxPoint x="720" y="750" />
            </Array>
          </mxGeometry>
        </mxCell>
        <mxCell id="jXORyKpwqcTnmHkpgUig-67" value="&lt;font style=&quot;font-size: 8px;&quot;&gt;Да&lt;/font&gt;" style="edgeLabel;html=1;align=center;verticalAlign=middle;resizable=0;points=[];" vertex="1" connectable="0" parent="jXORyKpwqcTnmHkpgUig-63">
          <mxGeometry x="-0.0835" relative="1" as="geometry">
            <mxPoint as="offset" />
          </mxGeometry>
        </mxCell>
        <mxCell id="jXORyKpwqcTnmHkpgUig-30" value="" style="rhombus;" vertex="1" parent="1">
          <mxGeometry x="454.99655172413793" y="210" width="30" height="30" as="geometry" />
        </mxCell>
        <mxCell id="jXORyKpwqcTnmHkpgUig-46" style="edgeStyle=orthogonalEdgeStyle;rounded=0;orthogonalLoop=1;jettySize=auto;html=1;exitX=0.5;exitY=1;exitDx=0;exitDy=0;entryX=0;entryY=0.5;entryDx=0;entryDy=0;" edge="1" parent="1" source="jXORyKpwqcTnmHkpgUig-41" target="jXORyKpwqcTnmHkpgUig-48">
          <mxGeometry relative="1" as="geometry">
            <mxPoint x="370" y="300" as="targetPoint" />
            <Array as="points">
              <mxPoint x="150" y="246" />
              <mxPoint x="150" y="285" />
            </Array>
          </mxGeometry>
        </mxCell>
        <mxCell id="jXORyKpwqcTnmHkpgUig-41" value="&lt;font style=&quot;font-size: 9px;&quot;&gt;Ввод названия трека/имя исполнителя&lt;/font&gt;" style="html=1;align=center;verticalAlign=top;rounded=1;absoluteArcSize=1;arcSize=10;dashed=0;whiteSpace=wrap;" vertex="1" parent="1">
          <mxGeometry x="102.5" y="204.38" width="100" height="41.25" as="geometry" />
        </mxCell>
        <mxCell id="jXORyKpwqcTnmHkpgUig-42" value="&lt;font style=&quot;font-size: 9px;&quot;&gt;Предоставление &lt;font style=&quot;&quot;&gt;рекомендаций/&lt;/font&gt;поиска по треку/артистам&lt;/font&gt;" style="rounded=0;whiteSpace=wrap;html=1;" vertex="1" parent="1">
          <mxGeometry x="410" y="117.5" width="120" height="55" as="geometry" />
        </mxCell>
        <mxCell id="jXORyKpwqcTnmHkpgUig-43" value="&lt;font style=&quot;font-size: 9px;&quot;&gt;Выбор музыки&lt;/font&gt;" style="rounded=0;whiteSpace=wrap;html=1;" vertex="1" parent="1">
          <mxGeometry x="118.75" y="130" width="67.5" height="30" as="geometry" />
        </mxCell>
        <mxCell id="jXORyKpwqcTnmHkpgUig-50" style="edgeStyle=orthogonalEdgeStyle;rounded=0;orthogonalLoop=1;jettySize=auto;html=1;exitX=0.5;exitY=1;exitDx=0;exitDy=0;entryX=0.5;entryY=0;entryDx=0;entryDy=0;" edge="1" parent="1" source="jXORyKpwqcTnmHkpgUig-48" target="jXORyKpwqcTnmHkpgUig-51">
          <mxGeometry relative="1" as="geometry">
            <mxPoint x="469.83333333333337" y="340" as="targetPoint" />
          </mxGeometry>
        </mxCell>
        <mxCell id="jXORyKpwqcTnmHkpgUig-57" value="&lt;font style=&quot;font-size: 8px;&quot;&gt;По запросу нашелся трек/исполнитель&lt;/font&gt;" style="edgeLabel;html=1;align=center;verticalAlign=middle;resizable=0;points=[];" vertex="1" connectable="0" parent="jXORyKpwqcTnmHkpgUig-50">
          <mxGeometry x="-0.2186" y="-1" relative="1" as="geometry">
            <mxPoint x="1" as="offset" />
          </mxGeometry>
        </mxCell>
        <mxCell id="jXORyKpwqcTnmHkpgUig-48" value="&lt;font style=&quot;font-size: 9px;&quot;&gt;Определение наличия в библиотеки запроса пользователя&lt;/font&gt;" style="rounded=0;whiteSpace=wrap;html=1;" vertex="1" parent="1">
          <mxGeometry x="422.5" y="260" width="107.5" height="50" as="geometry" />
        </mxCell>
        <mxCell id="jXORyKpwqcTnmHkpgUig-54" value="" style="edgeStyle=orthogonalEdgeStyle;rounded=0;orthogonalLoop=1;jettySize=auto;html=1;entryX=1;entryY=0.5;entryDx=0;entryDy=0;" edge="1" parent="1" source="jXORyKpwqcTnmHkpgUig-51" target="jXORyKpwqcTnmHkpgUig-56">
          <mxGeometry relative="1" as="geometry">
            <mxPoint x="133.75" y="355" as="targetPoint" />
          </mxGeometry>
        </mxCell>
        <mxCell id="jXORyKpwqcTnmHkpgUig-55" value="&lt;font style=&quot;font-size: 8px;&quot;&gt;Нет&lt;/font&gt;" style="edgeLabel;html=1;align=center;verticalAlign=middle;resizable=0;points=[];" vertex="1" connectable="0" parent="jXORyKpwqcTnmHkpgUig-54">
          <mxGeometry x="-0.1425" y="-1" relative="1" as="geometry">
            <mxPoint as="offset" />
          </mxGeometry>
        </mxCell>
        <mxCell id="jXORyKpwqcTnmHkpgUig-81" style="edgeStyle=orthogonalEdgeStyle;rounded=0;orthogonalLoop=1;jettySize=auto;html=1;exitX=1;exitY=0.5;exitDx=0;exitDy=0;" edge="1" parent="1" source="jXORyKpwqcTnmHkpgUig-51" target="jXORyKpwqcTnmHkpgUig-83">
          <mxGeometry relative="1" as="geometry">
            <mxPoint x="660" y="354.8275862068966" as="targetPoint" />
          </mxGeometry>
        </mxCell>
        <mxCell id="jXORyKpwqcTnmHkpgUig-82" value="&lt;font style=&quot;font-size: 8px;&quot;&gt;Да&lt;/font&gt;" style="edgeLabel;html=1;align=center;verticalAlign=middle;resizable=0;points=[];" vertex="1" connectable="0" parent="jXORyKpwqcTnmHkpgUig-81">
          <mxGeometry x="-0.0506" relative="1" as="geometry">
            <mxPoint as="offset" />
          </mxGeometry>
        </mxCell>
        <mxCell id="jXORyKpwqcTnmHkpgUig-51" value="" style="rhombus;" vertex="1" parent="1">
          <mxGeometry x="450" y="340" width="40" height="30" as="geometry" />
        </mxCell>
        <mxCell id="jXORyKpwqcTnmHkpgUig-58" style="edgeStyle=orthogonalEdgeStyle;rounded=0;orthogonalLoop=1;jettySize=auto;html=1;exitX=0.5;exitY=1;exitDx=0;exitDy=0;entryX=0.5;entryY=0;entryDx=0;entryDy=0;" edge="1" parent="1" source="jXORyKpwqcTnmHkpgUig-56" target="jXORyKpwqcTnmHkpgUig-60">
          <mxGeometry relative="1" as="geometry">
            <mxPoint x="110" y="390" as="targetPoint" />
          </mxGeometry>
        </mxCell>
        <mxCell id="jXORyKpwqcTnmHkpgUig-62" value="&lt;font style=&quot;font-size: 8px;&quot;&gt;Запрос введён&lt;/font&gt;" style="edgeLabel;html=1;align=center;verticalAlign=middle;resizable=0;points=[];" vertex="1" connectable="0" parent="jXORyKpwqcTnmHkpgUig-58">
          <mxGeometry x="-0.2103" y="-1" relative="1" as="geometry">
            <mxPoint as="offset" />
          </mxGeometry>
        </mxCell>
        <mxCell id="jXORyKpwqcTnmHkpgUig-56" value="Ввод другого запроса" style="html=1;align=center;verticalAlign=top;rounded=1;absoluteArcSize=1;arcSize=10;dashed=0;whiteSpace=wrap;" vertex="1" parent="1">
          <mxGeometry x="82.5" y="342.5" width="140" height="25" as="geometry" />
        </mxCell>
        <mxCell id="jXORyKpwqcTnmHkpgUig-61" style="edgeStyle=orthogonalEdgeStyle;rounded=0;orthogonalLoop=1;jettySize=auto;html=1;exitX=0.5;exitY=1;exitDx=0;exitDy=0;entryX=0;entryY=0.5;entryDx=0;entryDy=0;" edge="1" parent="1" source="jXORyKpwqcTnmHkpgUig-60" target="jXORyKpwqcTnmHkpgUig-64">
          <mxGeometry relative="1" as="geometry">
            <mxPoint x="370" y="770" as="targetPoint" />
            <Array as="points">
              <mxPoint x="80" y="430" />
              <mxPoint x="80" y="750" />
            </Array>
          </mxGeometry>
        </mxCell>
        <mxCell id="jXORyKpwqcTnmHkpgUig-66" value="&lt;font style=&quot;font-size: 8px;&quot;&gt;Нет&lt;/font&gt;" style="edgeLabel;html=1;align=center;verticalAlign=middle;resizable=0;points=[];" vertex="1" connectable="0" parent="jXORyKpwqcTnmHkpgUig-61">
          <mxGeometry x="-0.541" y="-1" relative="1" as="geometry">
            <mxPoint as="offset" />
          </mxGeometry>
        </mxCell>
        <mxCell id="jXORyKpwqcTnmHkpgUig-68" style="edgeStyle=orthogonalEdgeStyle;rounded=0;orthogonalLoop=1;jettySize=auto;html=1;exitX=1;exitY=0.5;exitDx=0;exitDy=0;entryX=1.026;entryY=0.4;entryDx=0;entryDy=0;entryPerimeter=0;" edge="1" parent="1" source="jXORyKpwqcTnmHkpgUig-60" target="jXORyKpwqcTnmHkpgUig-48">
          <mxGeometry relative="1" as="geometry">
            <mxPoint x="530" y="280" as="targetPoint" />
            <Array as="points">
              <mxPoint x="560" y="415" />
              <mxPoint x="560" y="280" />
            </Array>
          </mxGeometry>
        </mxCell>
        <mxCell id="jXORyKpwqcTnmHkpgUig-69" value="&lt;font style=&quot;font-size: 8px;&quot;&gt;Да&lt;/font&gt;" style="edgeLabel;html=1;align=center;verticalAlign=middle;resizable=0;points=[];" vertex="1" connectable="0" parent="jXORyKpwqcTnmHkpgUig-68">
          <mxGeometry x="-0.2254" y="-4" relative="1" as="geometry">
            <mxPoint x="-3" y="-4" as="offset" />
          </mxGeometry>
        </mxCell>
        <mxCell id="jXORyKpwqcTnmHkpgUig-60" value="" style="rhombus;" vertex="1" parent="1">
          <mxGeometry x="137.5" y="400" width="30" height="30" as="geometry" />
        </mxCell>
        <mxCell id="jXORyKpwqcTnmHkpgUig-64" value="" style="ellipse;html=1;shape=endState;fillColor=strokeColor;" vertex="1" parent="1">
          <mxGeometry x="460" y="740" width="20" height="20" as="geometry" />
        </mxCell>
        <mxCell id="jXORyKpwqcTnmHkpgUig-65" value="&lt;font style=&quot;font-size: 9px;&quot;&gt;Конец&lt;/font&gt;" style="text;html=1;align=center;verticalAlign=middle;resizable=0;points=[];autosize=1;strokeColor=none;fillColor=none;" vertex="1" parent="1">
          <mxGeometry x="445" y="760" width="50" height="30" as="geometry" />
        </mxCell>
        <mxCell id="jXORyKpwqcTnmHkpgUig-84" style="edgeStyle=orthogonalEdgeStyle;rounded=0;orthogonalLoop=1;jettySize=auto;html=1;entryX=0.5;entryY=0;entryDx=0;entryDy=0;exitX=0.5;exitY=1;exitDx=0;exitDy=0;" edge="1" parent="1" source="jXORyKpwqcTnmHkpgUig-93" target="jXORyKpwqcTnmHkpgUig-86">
          <mxGeometry relative="1" as="geometry">
            <mxPoint x="629.58" y="610" as="targetPoint" />
            <mxPoint x="570" y="520" as="sourcePoint" />
            <Array as="points">
              <mxPoint x="640" y="500" />
            </Array>
          </mxGeometry>
        </mxCell>
        <mxCell id="jXORyKpwqcTnmHkpgUig-85" value="&lt;font style=&quot;font-size: 8px;&quot;&gt;Добавить в плейлист/понравившиеся&lt;/font&gt;" style="edgeLabel;html=1;align=center;verticalAlign=middle;resizable=0;points=[];" vertex="1" connectable="0" parent="jXORyKpwqcTnmHkpgUig-84">
          <mxGeometry x="-0.1134" relative="1" as="geometry">
            <mxPoint y="1" as="offset" />
          </mxGeometry>
        </mxCell>
        <mxCell id="jXORyKpwqcTnmHkpgUig-95" style="edgeStyle=orthogonalEdgeStyle;rounded=0;orthogonalLoop=1;jettySize=auto;html=1;exitX=0.5;exitY=1;exitDx=0;exitDy=0;entryX=0.5;entryY=0;entryDx=0;entryDy=0;" edge="1" parent="1" source="jXORyKpwqcTnmHkpgUig-83" target="jXORyKpwqcTnmHkpgUig-96">
          <mxGeometry relative="1" as="geometry">
            <mxPoint x="639.8571428571428" y="410" as="targetPoint" />
          </mxGeometry>
        </mxCell>
        <mxCell id="jXORyKpwqcTnmHkpgUig-97" value="&lt;font style=&quot;font-size: 8px;&quot;&gt;Нашли нужное нам&lt;/font&gt;" style="edgeLabel;html=1;align=center;verticalAlign=middle;resizable=0;points=[];" vertex="1" connectable="0" parent="jXORyKpwqcTnmHkpgUig-95">
          <mxGeometry x="-0.2495" relative="1" as="geometry">
            <mxPoint as="offset" />
          </mxGeometry>
        </mxCell>
        <mxCell id="jXORyKpwqcTnmHkpgUig-83" value="&lt;font style=&quot;font-size: 9px;&quot;&gt;&lt;font style=&quot;&quot;&gt;Вывод треков/исполнителей&lt;/font&gt; пользователю&lt;/font&gt;" style="rounded=0;whiteSpace=wrap;html=1;" vertex="1" parent="1">
          <mxGeometry x="600" y="331.25" width="80" height="47.5" as="geometry" />
        </mxCell>
        <mxCell id="jXORyKpwqcTnmHkpgUig-88" style="edgeStyle=orthogonalEdgeStyle;rounded=0;orthogonalLoop=1;jettySize=auto;html=1;exitX=0;exitY=0.5;exitDx=0;exitDy=0;entryX=0;entryY=0.5;entryDx=0;entryDy=0;" edge="1" parent="1" source="jXORyKpwqcTnmHkpgUig-86" target="jXORyKpwqcTnmHkpgUig-56">
          <mxGeometry relative="1" as="geometry">
            <mxPoint x="30" y="360" as="targetPoint" />
            <mxPoint x="670" y="445" as="sourcePoint" />
            <Array as="points">
              <mxPoint x="50" y="585" />
              <mxPoint x="50" y="355" />
            </Array>
          </mxGeometry>
        </mxCell>
        <mxCell id="jXORyKpwqcTnmHkpgUig-89" value="&lt;font style=&quot;font-size: 8px;&quot;&gt;Нет&lt;/font&gt;" style="edgeLabel;html=1;align=center;verticalAlign=middle;resizable=0;points=[];" vertex="1" connectable="0" parent="jXORyKpwqcTnmHkpgUig-88">
          <mxGeometry x="-0.5094" y="-1" relative="1" as="geometry">
            <mxPoint as="offset" />
          </mxGeometry>
        </mxCell>
        <mxCell id="jXORyKpwqcTnmHkpgUig-90" style="edgeStyle=orthogonalEdgeStyle;rounded=0;orthogonalLoop=1;jettySize=auto;html=1;exitX=0.5;exitY=1;exitDx=0;exitDy=0;" edge="1" parent="1" source="jXORyKpwqcTnmHkpgUig-86" target="jXORyKpwqcTnmHkpgUig-92">
          <mxGeometry relative="1" as="geometry">
            <mxPoint x="700" y="520" as="targetPoint" />
          </mxGeometry>
        </mxCell>
        <mxCell id="jXORyKpwqcTnmHkpgUig-91" value="&lt;font style=&quot;font-size: 8px;&quot;&gt;Да&lt;/font&gt;" style="edgeLabel;html=1;align=center;verticalAlign=middle;resizable=0;points=[];" vertex="1" connectable="0" parent="jXORyKpwqcTnmHkpgUig-90">
          <mxGeometry x="-0.1887" relative="1" as="geometry">
            <mxPoint as="offset" />
          </mxGeometry>
        </mxCell>
        <mxCell id="jXORyKpwqcTnmHkpgUig-86" value="" style="rhombus;" vertex="1" parent="1">
          <mxGeometry x="620" y="570" width="40" height="30" as="geometry" />
        </mxCell>
        <mxCell id="jXORyKpwqcTnmHkpgUig-104" style="edgeStyle=orthogonalEdgeStyle;rounded=0;orthogonalLoop=1;jettySize=auto;html=1;exitX=0;exitY=0.5;exitDx=0;exitDy=0;entryX=1;entryY=0.5;entryDx=0;entryDy=0;" edge="1" parent="1" source="jXORyKpwqcTnmHkpgUig-92" target="jXORyKpwqcTnmHkpgUig-105">
          <mxGeometry relative="1" as="geometry">
            <mxPoint x="520" y="645" as="targetPoint" />
          </mxGeometry>
        </mxCell>
        <mxCell id="jXORyKpwqcTnmHkpgUig-106" value="&lt;font style=&quot;font-size: 8px;&quot;&gt;Продолжаем поиск&lt;/font&gt;" style="edgeLabel;html=1;align=center;verticalAlign=middle;resizable=0;points=[];" vertex="1" connectable="0" parent="jXORyKpwqcTnmHkpgUig-104">
          <mxGeometry x="0.0098" y="2" relative="1" as="geometry">
            <mxPoint x="7" y="-2" as="offset" />
          </mxGeometry>
        </mxCell>
        <mxCell id="jXORyKpwqcTnmHkpgUig-92" value="&lt;font style=&quot;font-size: 9px;&quot;&gt;Осуществить добавление&lt;/font&gt;" style="rounded=0;whiteSpace=wrap;html=1;" vertex="1" parent="1">
          <mxGeometry x="597.5" y="630" width="85" height="30" as="geometry" />
        </mxCell>
        <mxCell id="jXORyKpwqcTnmHkpgUig-93" value="&lt;font style=&quot;font-size: 9px;&quot;&gt;Прослушать трек/выбрать испольнителя&lt;/font&gt;" style="rounded=0;whiteSpace=wrap;html=1;" vertex="1" parent="1">
          <mxGeometry x="602.5" y="460" width="80" height="40" as="geometry" />
        </mxCell>
        <mxCell id="jXORyKpwqcTnmHkpgUig-102" style="edgeStyle=orthogonalEdgeStyle;rounded=0;orthogonalLoop=1;jettySize=auto;html=1;exitX=0;exitY=0.5;exitDx=0;exitDy=0;" edge="1" parent="1" source="jXORyKpwqcTnmHkpgUig-96">
          <mxGeometry relative="1" as="geometry">
            <mxPoint x="100" y="370" as="targetPoint" />
            <mxPoint x="654.79" y="354.51" as="sourcePoint" />
            <Array as="points">
              <mxPoint x="570" y="425" />
              <mxPoint x="570" y="450" />
              <mxPoint x="100" y="450" />
            </Array>
          </mxGeometry>
        </mxCell>
        <mxCell id="jXORyKpwqcTnmHkpgUig-103" value="&lt;font style=&quot;font-size: 8px;&quot;&gt;Нет&lt;/font&gt;" style="edgeLabel;html=1;align=center;verticalAlign=middle;resizable=0;points=[];" vertex="1" connectable="0" parent="jXORyKpwqcTnmHkpgUig-102">
          <mxGeometry x="-0.194" y="2" relative="1" as="geometry">
            <mxPoint as="offset" />
          </mxGeometry>
        </mxCell>
        <mxCell id="jXORyKpwqcTnmHkpgUig-96" value="" style="rhombus;" vertex="1" parent="1">
          <mxGeometry x="620" y="410" width="40" height="30" as="geometry" />
        </mxCell>
        <mxCell id="jXORyKpwqcTnmHkpgUig-99" style="edgeStyle=orthogonalEdgeStyle;rounded=0;orthogonalLoop=1;jettySize=auto;html=1;exitX=0.5;exitY=1;exitDx=0;exitDy=0;entryX=0.463;entryY=-0.045;entryDx=0;entryDy=0;entryPerimeter=0;" edge="1" parent="1" source="jXORyKpwqcTnmHkpgUig-96" target="jXORyKpwqcTnmHkpgUig-93">
          <mxGeometry relative="1" as="geometry">
            <Array as="points">
              <mxPoint x="640" y="449" />
              <mxPoint x="640" y="449" />
            </Array>
          </mxGeometry>
        </mxCell>
        <mxCell id="jXORyKpwqcTnmHkpgUig-100" value="&lt;font style=&quot;font-size: 8px;&quot;&gt;Да&lt;/font&gt;" style="edgeLabel;html=1;align=center;verticalAlign=middle;resizable=0;points=[];" vertex="1" connectable="0" parent="jXORyKpwqcTnmHkpgUig-99">
          <mxGeometry x="-0.5207" relative="1" as="geometry">
            <mxPoint as="offset" />
          </mxGeometry>
        </mxCell>
        <mxCell id="jXORyKpwqcTnmHkpgUig-107" style="edgeStyle=orthogonalEdgeStyle;rounded=0;orthogonalLoop=1;jettySize=auto;html=1;entryX=0.5;entryY=0;entryDx=0;entryDy=0;" edge="1" parent="1" source="jXORyKpwqcTnmHkpgUig-105" target="jXORyKpwqcTnmHkpgUig-64">
          <mxGeometry relative="1" as="geometry" />
        </mxCell>
        <mxCell id="jXORyKpwqcTnmHkpgUig-108" value="&lt;font style=&quot;font-size: 8px;&quot;&gt;Нет&lt;/font&gt;" style="edgeLabel;html=1;align=center;verticalAlign=middle;resizable=0;points=[];" vertex="1" connectable="0" parent="jXORyKpwqcTnmHkpgUig-107">
          <mxGeometry x="-0.2224" y="-1" relative="1" as="geometry">
            <mxPoint as="offset" />
          </mxGeometry>
        </mxCell>
        <mxCell id="jXORyKpwqcTnmHkpgUig-105" value="" style="rhombus;" vertex="1" parent="1">
          <mxGeometry x="450" y="630" width="40" height="30" as="geometry" />
        </mxCell>
        <mxCell id="jXORyKpwqcTnmHkpgUig-109" style="edgeStyle=orthogonalEdgeStyle;rounded=0;orthogonalLoop=1;jettySize=auto;html=1;exitX=0;exitY=0.5;exitDx=0;exitDy=0;entryX=0.124;entryY=1.147;entryDx=0;entryDy=0;entryPerimeter=0;" edge="1" parent="1" source="jXORyKpwqcTnmHkpgUig-105" target="jXORyKpwqcTnmHkpgUig-56">
          <mxGeometry relative="1" as="geometry" />
        </mxCell>
        <mxCell id="jXORyKpwqcTnmHkpgUig-110" value="&lt;font style=&quot;font-size: 8px;&quot;&gt;Да&lt;/font&gt;" style="edgeLabel;html=1;align=center;verticalAlign=middle;resizable=0;points=[];" vertex="1" connectable="0" parent="jXORyKpwqcTnmHkpgUig-109">
          <mxGeometry x="-0.3188" y="-2" relative="1" as="geometry">
            <mxPoint as="offset" />
          </mxGeometry>
        </mxCell>
      </root>
    </mxGraphModel>
  </diagram>
</mxfile>
